<svg xmlns="http://www.w3.org/2000/svg" width="27" height="27" viewBox="0 0 27 27">
  <defs>
    <style>
      .cls-1 {
        fill: #425763;
        fill-rule: evenodd;
      }
    </style>
  </defs>
  <path class="cls-1" d="M21.69,5.759V4.525A3.86,3.86,0,0,0,17.835.667H8.378A3.86,3.86,0,0,0,4.523,4.525V5.759H21.69Zm0,0M6.065,17.074v8.383A1.543,1.543,0,0,0,7.607,27h11a1.543,1.543,0,0,0,1.542-1.543V17.074H6.065Zm9.1,6.583H11.05a0.771,0.771,0,0,1,0-1.543h4.112a0.771,0.771,0,0,1,0,1.543h0Zm0-3.292H11.05a0.771,0.771,0,0,1,0-1.543h4.112a0.771,0.771,0,0,1,0,1.543h0Zm0,0M22.409,7.3H3.855A3.861,3.861,0,0,0,0,11.159v6.172a3.861,3.861,0,0,0,3.855,3.857H4.523V17.074H4.06a0.771,0.771,0,0,1,0-1.543H22.152a0.771,0.771,0,0,1,0,1.543H21.69v4.115h0.72a3.86,3.86,0,0,0,3.855-3.857V11.159A3.861,3.861,0,0,0,22.409,7.3h0ZM6.527,12.136H4.06a0.771,0.771,0,0,1,0-1.543H6.527a0.771,0.771,0,0,1,0,1.543h0Zm0,0"/>
</svg>
